<svg width="636" height="648" viewBox="0 0 636 648" fill="none" xmlns="http://www.w3.org/2000/svg">
<g clip-path="url(#clip0_34_2)">
<path d="M0 648H635.984V0.0163H0V648Z" fill="white"/>
<path d="M558.931 401.834C553.389 401.834 548.247 400.085 544.011 397.094C544.895 396.216 545.77 395.309 546.612 394.392L546.034 393.838C545.166 394.781 544.266 395.714 543.356 396.615C536.888 391.748 532.697 383.927 532.697 375.108C532.697 360.347 544.444 348.379 558.931 348.379C573.419 348.379 585.163 360.347 585.163 375.108C585.163 389.869 573.419 401.834 558.931 401.834ZM551.172 387.708C550.368 388.764 549.528 389.814 548.673 390.835L549.277 391.36C550.139 390.329 550.988 389.27 551.799 388.204L551.172 387.708ZM555.726 381.115C555.023 382.242 554.282 383.37 553.525 384.465L554.174 384.932C554.937 383.827 555.685 382.686 556.397 381.549L555.726 381.115ZM559.65 374.11C559.052 375.306 558.419 376.498 557.771 377.658L558.458 378.063C559.116 376.89 559.755 375.685 560.359 374.476L559.65 374.11ZM562.913 366.756C562.429 367.997 561.911 369.247 561.367 370.472L562.092 370.806C562.639 369.568 563.164 368.308 563.654 367.054L562.913 366.756ZM565.472 359.122C565.107 360.409 564.706 361.701 564.283 362.965L565.037 363.227C565.463 361.951 565.87 360.645 566.239 359.349L565.472 359.122ZM567.31 351.288C567.066 352.604 566.789 353.929 566.484 355.228L567.256 355.416C567.565 354.104 567.845 352.766 568.093 351.437L567.31 351.288ZM127.249 229.318C105.146 229.318 87.229 211.061 87.229 188.544C87.229 166.023 105.146 147.766 127.249 147.766C143.957 147.766 158.274 158.199 164.267 173.018H143.748C138.506 173.018 134.24 177.366 134.24 182.706V228.699C131.97 229.108 129.635 229.318 127.249 229.318ZM265.679 149.347C257.29 149.347 249.38 144.157 246.196 135.698C242.07 124.737 247.446 112.445 258.204 108.239C260.662 107.28 263.187 106.823 265.671 106.823C274.06 106.823 281.97 112.017 285.154 120.473C289.28 131.437 283.904 143.729 273.146 147.932C270.689 148.894 268.163 149.347 265.679 149.347Z" fill="#F5FFF7"/>
<path d="M241.369 88.9164C240.102 88.6118 238.803 88.4077 237.507 88.3138L237.563 87.507C238.902 87.6042 240.244 87.8116 241.552 88.1291L241.369 88.9164ZM229.752 89.0362L229.554 88.2522C230.857 87.9088 232.194 87.6722 233.529 87.5491L233.601 88.3559C232.309 88.4757 231.014 88.7058 229.752 89.0362ZM248.566 91.9489C247.459 91.2524 246.289 90.6432 245.087 90.1378L245.391 89.3894C246.631 89.911 247.84 90.5428 248.983 91.2588L248.566 91.9489ZM222.616 92.2179L222.185 91.5342C223.311 90.7955 224.507 90.1443 225.741 89.5935L226.059 90.3354C224.864 90.87 223.706 91.5019 222.616 92.2179ZM254.454 97.136C253.622 96.1219 252.7 95.1662 251.716 94.3011L252.236 93.6888C253.253 94.583 254.204 95.5679 255.064 96.6177L254.454 97.136ZM216.838 97.5313L216.217 97.0259C217.057 95.9567 217.987 94.9491 218.982 94.0355L219.515 94.6348C218.551 95.5226 217.651 96.4978 216.838 97.5313ZM258.42 103.963C257.943 102.725 257.367 101.523 256.708 100.386L257.392 99.9742C258.073 101.147 258.667 102.391 259.16 103.668L258.42 103.963ZM213.007 104.439L212.262 104.16C212.727 102.877 213.298 101.623 213.958 100.431L214.651 100.83C214.011 101.983 213.458 103.198 213.007 104.439ZM259.597 107.97C259.332 106.681 258.96 105.395 258.492 104.154L259.234 103.862C259.717 105.145 260.101 106.474 260.375 107.805L259.597 107.97ZM211.508 112.228L210.714 112.202C210.757 110.834 210.91 109.461 211.17 108.116L211.95 108.272C211.699 109.574 211.55 110.902 211.508 112.228ZM260.733 115.992L259.944 115.898C260.055 114.943 260.111 113.974 260.111 113.015C260.111 112.652 260.103 112.283 260.087 111.92L260.881 111.884C260.897 112.257 260.905 112.639 260.905 113.015C260.905 114.006 260.848 115.007 260.733 115.992ZM211.753 120.327C211.367 119.012 211.083 117.661 210.91 116.307L211.698 116.203C211.866 117.515 212.14 118.824 212.514 120.094L211.753 120.327ZM258.526 123.872L257.806 123.528C258.358 122.326 258.819 121.073 259.176 119.799L259.94 120.023C259.572 121.338 259.096 122.631 258.526 123.872ZM215.252 127.705C214.483 126.587 213.797 125.395 213.212 124.16L213.929 123.807C214.495 125.003 215.159 126.156 215.903 127.241L215.252 127.705ZM253.996 130.64L253.419 130.083C254.313 129.124 255.138 128.081 255.871 126.985L256.528 127.442C255.769 128.575 254.922 129.645 253.996 130.64ZM220.866 133.569C219.786 132.756 218.763 131.849 217.826 130.87L218.395 130.303C219.302 131.252 220.293 132.13 221.339 132.918L220.866 133.569ZM247.591 135.594L247.218 134.881C248.369 134.259 249.477 133.537 250.51 132.736L250.99 133.384C249.923 134.207 248.779 134.952 247.591 135.594ZM228.013 137.327C226.737 136.9 225.485 136.368 224.291 135.74L224.656 135.02C225.812 135.626 227.024 136.145 228.26 136.556L228.013 137.327ZM239.978 138.238L239.845 137.437C241.123 137.217 242.396 136.89 243.632 136.459L243.888 137.227C242.613 137.667 241.297 138.008 239.978 138.238ZM235.807 138.594C234.517 138.594 233.214 138.49 231.935 138.286L232.059 137.486C233.296 137.684 234.558 137.784 235.808 137.784H235.954L235.958 138.594H235.807ZM488.242 249.727C487.087 249.681 485.914 249.655 484.76 249.655H484.286L484.283 248.845H484.76C485.927 248.845 487.11 248.871 488.274 248.92L488.242 249.727ZM476.39 250.076L476.311 249.27C477.627 249.137 478.966 249.033 480.292 248.962L480.333 249.772C479.02 249.843 477.694 249.944 476.39 250.076ZM496.118 250.433C494.818 250.251 493.495 250.102 492.188 249.986L492.258 249.179C493.578 249.296 494.913 249.448 496.223 249.629L496.118 250.433ZM468.568 251.243L468.415 250.449C469.716 250.19 471.038 249.96 472.349 249.765L472.466 250.566C471.166 250.76 469.855 250.987 468.568 251.243ZM503.893 251.884C502.618 251.583 501.314 251.308 500.023 251.065L500.166 250.268C501.47 250.511 502.787 250.789 504.075 251.097L503.893 251.884ZM460.888 253.161L460.662 252.383C461.931 252.001 463.225 251.645 464.516 251.324L464.704 252.108C463.429 252.429 462.144 252.782 460.888 253.161ZM511.503 254.084C510.256 253.657 508.984 253.258 507.725 252.892L507.941 252.114C509.213 252.48 510.498 252.885 511.754 253.316L511.503 254.084ZM453.418 255.808L453.123 255.056C454.353 254.554 455.613 254.071 456.862 253.627L457.123 254.395C455.886 254.833 454.64 255.309 453.418 255.808ZM518.887 257.01C517.685 256.466 516.454 255.944 515.23 255.458L515.516 254.703C516.753 255.196 517.996 255.72 519.208 256.271L518.887 257.01ZM446.248 259.158L445.882 258.439C447.055 257.82 448.261 257.224 449.463 256.66L449.793 257.395C448.604 257.953 447.408 258.546 446.248 259.158ZM525.962 260.639C524.817 259.981 523.641 259.343 522.467 258.74L522.823 258.017C524.01 258.623 525.196 259.268 526.353 259.932L525.962 260.639ZM439.411 263.182L438.978 262.501C440.095 261.773 441.239 261.06 442.384 260.386L442.782 261.089C441.646 261.756 440.514 262.463 439.411 263.182ZM532.665 264.925C531.587 264.16 530.474 263.412 529.364 262.702L529.787 262.016C530.907 262.732 532.029 263.486 533.12 264.261L532.665 264.925ZM432.968 267.847L432.479 267.209C433.522 266.376 434.597 265.56 435.675 264.779L436.136 265.437C435.067 266.211 434.002 267.024 432.968 267.847ZM538.942 269.833C537.944 268.972 536.907 268.12 535.861 267.303L536.344 266.662C537.4 267.485 538.446 268.343 539.458 269.215L538.942 269.833ZM426.984 273.106L426.437 272.519C427.397 271.589 428.396 270.673 429.397 269.791L429.916 270.407C428.924 271.278 427.938 272.186 426.984 273.106ZM544.739 275.315C543.82 274.36 542.866 273.414 541.906 272.503L542.447 271.91C543.417 272.827 544.377 273.783 545.309 274.748L544.739 275.315ZM421.502 278.915L420.904 278.384C421.778 277.366 422.685 276.355 423.604 275.383L424.176 275.947C423.266 276.909 422.367 277.907 421.502 278.915ZM550.005 281.322C549.179 280.285 548.317 279.252 547.442 278.254L548.037 277.716C548.918 278.724 549.789 279.764 550.622 280.81L550.005 281.322ZM416.576 285.223L415.934 284.75C416.706 283.658 417.52 282.566 418.344 281.507L418.967 282.012C418.15 283.059 417.345 284.141 416.576 285.223ZM554.696 287.802C553.968 286.691 553.204 285.583 552.425 284.507L553.064 284.024C553.853 285.113 554.623 286.231 555.357 287.352L554.696 287.802ZM412.251 291.978L411.568 291.57C412.239 290.404 412.948 289.241 413.673 288.107L414.337 288.55C413.619 289.671 412.916 290.825 412.251 291.978ZM558.766 294.697C558.146 293.524 557.488 292.348 556.81 291.201L557.494 290.783C558.178 291.943 558.842 293.128 559.466 294.311L558.766 294.697ZM408.569 299.122L407.85 298.779C408.41 297.557 409.008 296.329 409.625 295.127L410.327 295.507C409.717 296.696 409.125 297.911 408.569 299.122ZM562.181 301.948C561.672 300.72 561.126 299.488 560.556 298.28L561.275 297.93C561.847 299.148 562.397 300.392 562.913 301.63L562.181 301.948ZM405.564 306.59L404.817 306.321C405.262 305.045 405.742 303.765 406.244 302.514L406.979 302.819C406.483 304.06 406.006 305.327 405.564 306.59ZM564.91 309.497C564.512 308.22 564.083 306.937 563.631 305.683L564.375 305.405C564.833 306.668 565.269 307.964 565.666 309.254L564.91 309.497ZM403.271 314.311L402.502 314.113C402.823 312.804 403.182 311.486 403.567 310.193L404.327 310.43C403.948 311.709 403.592 313.015 403.271 314.311ZM566.926 317.285C566.652 315.98 566.344 314.664 566.007 313.368L566.776 313.161C567.113 314.47 567.425 315.798 567.702 317.117L566.926 317.285ZM401.707 322.21L400.921 322.087C401.122 320.752 401.357 319.404 401.618 318.082L402.4 318.241C402.139 319.55 401.907 320.885 401.707 322.21ZM568.21 325.236C568.058 323.908 567.873 322.566 567.66 321.244L568.446 321.115C568.659 322.446 568.846 323.804 568.999 325.142L568.21 325.236ZM400.88 330.219L400.088 330.174C400.164 328.823 400.272 327.459 400.412 326.121L401.201 326.205C401.064 327.53 400.956 328.881 400.88 330.219ZM568.757 333.271C568.729 331.933 568.668 330.579 568.576 329.247L569.368 329.189C569.46 330.533 569.524 331.901 569.552 333.252L568.757 333.271ZM399.996 338.306C399.961 337.302 399.942 336.278 399.942 335.264C399.942 334.92 399.945 334.58 399.948 334.237L400.743 334.246C400.74 334.586 400.737 334.923 400.737 335.264C400.737 336.268 400.756 337.282 400.788 338.277L399.996 338.306ZM569.482 339.326L568.691 339.291C568.751 337.959 568.78 336.605 568.78 335.264H569.575C569.575 336.618 569.546 337.985 569.482 339.326ZM400.641 346.412C400.473 345.077 400.333 343.717 400.225 342.365L401.017 342.301C401.125 343.636 401.261 344.987 401.43 346.308L400.641 346.412ZM568.741 347.426L567.956 347.313C568.137 345.991 568.293 344.646 568.414 343.308L569.206 343.386C569.082 344.734 568.926 346.091 568.741 347.426ZM402.034 354.418C401.742 353.106 401.478 351.765 401.246 350.43L402.028 350.29C402.257 351.612 402.521 352.941 402.81 354.24L402.034 354.418ZM567.256 355.416L566.484 355.228C566.789 353.929 567.066 352.604 567.311 351.288L568.093 351.437C567.845 352.766 567.565 354.104 567.256 355.416ZM404.162 362.255C403.748 360.972 403.36 359.66 403.007 358.364L403.774 358.147C404.123 359.433 404.508 360.729 404.918 362.003L404.162 362.255ZM565.037 363.227L564.283 362.965C564.706 361.701 565.107 360.409 565.472 359.122L566.239 359.349C565.87 360.645 565.463 361.951 565.037 363.227ZM407.008 369.846C406.476 368.609 405.971 367.345 405.497 366.088L406.241 365.8C406.709 367.044 407.211 368.298 407.736 369.519L407.008 369.846ZM562.092 370.806L561.367 370.472C561.911 369.247 562.429 367.997 562.913 366.756L563.654 367.054C563.164 368.308 562.639 369.568 562.092 370.806ZM410.54 377.12C409.898 375.941 409.275 374.732 408.69 373.524L409.402 373.167C409.981 374.363 410.598 375.562 411.234 376.728L410.54 377.12ZM558.458 378.063L557.771 377.658C558.419 376.498 559.052 375.306 559.65 374.11L560.359 374.476C559.755 375.685 559.116 376.89 558.458 378.063ZM414.732 384.031C413.984 382.92 413.253 381.776 412.556 380.626L413.231 380.201C413.921 381.339 414.646 382.472 415.387 383.574L414.732 384.031ZM554.174 384.932L553.526 384.465C554.282 383.37 555.023 382.242 555.726 381.115L556.397 381.549C555.685 382.686 554.937 383.827 554.174 384.932ZM419.54 390.514C418.694 389.477 417.857 388.405 417.059 387.332L417.695 386.843C418.484 387.906 419.311 388.969 420.153 389.996L419.54 390.514ZM549.277 391.36L548.673 390.835C549.528 389.814 550.368 388.764 551.172 387.708L551.799 388.204C550.988 389.27 550.139 390.329 549.277 391.36ZM424.926 396.514C423.988 395.558 423.057 394.57 422.166 393.579L422.751 393.031C423.635 394.016 424.558 394.995 425.489 395.941L424.926 396.514ZM543.814 397.292L543.261 396.709C544.202 395.779 545.134 394.813 546.034 393.838L546.612 394.392C545.706 395.377 544.765 396.352 543.814 397.292ZM430.844 401.977C429.82 401.115 428.803 400.221 427.823 399.314L428.358 398.714C429.327 399.612 430.335 400.499 431.35 401.351L430.844 401.977ZM537.833 402.673L537.337 402.042C538.357 401.206 539.375 400.331 540.358 399.446L540.885 400.052C539.89 400.946 538.863 401.828 537.833 402.673ZM437.239 406.853C436.145 406.098 435.048 405.301 433.986 404.491L434.463 403.843C435.516 404.646 436.6 405.434 437.684 406.182L437.239 406.853ZM531.387 407.462L530.948 406.785C532.048 406.046 533.139 405.275 534.195 404.491L534.665 405.145C533.597 405.936 532.497 406.717 531.387 407.462ZM444.057 411.097C442.896 410.449 441.732 409.762 440.6 409.056L441.014 408.366C442.136 409.066 443.29 409.746 444.442 410.388L444.057 411.097ZM524.531 411.609L524.159 410.893C525.316 410.264 526.474 409.604 527.6 408.92L528.007 409.617C526.868 410.307 525.701 410.974 524.531 411.609ZM451.243 414.671C450.022 414.136 448.801 413.563 447.609 412.97L447.959 412.244C449.138 412.831 450.35 413.397 451.558 413.926L451.243 414.671ZM517.332 415.076L517.026 414.327C518.232 413.819 519.443 413.268 520.632 412.698L520.973 413.43C519.774 414.007 518.546 414.561 517.332 415.076ZM458.735 417.535C457.473 417.12 456.201 416.67 454.954 416.194L455.234 415.435C456.468 415.905 457.73 416.352 458.977 416.764L458.735 417.535ZM509.833 417.839L509.598 417.065C510.854 416.67 512.117 416.239 513.347 415.785L513.621 416.547C512.374 417.007 511.102 417.441 509.833 417.839ZM466.44 419.657C465.146 419.369 463.839 419.041 462.561 418.688L462.771 417.907C464.036 418.257 465.327 418.578 466.609 418.866L466.44 419.657ZM502.106 419.871L501.944 419.077C503.232 418.805 504.526 418.497 505.795 418.163L505.992 418.947C504.714 419.284 503.407 419.595 502.106 419.871ZM474.307 421.028C472.994 420.866 471.665 420.665 470.358 420.438L470.491 419.641C471.789 419.864 473.102 420.062 474.403 420.224L474.307 421.028ZM494.223 421.147L494.134 420.344C495.441 420.195 496.758 420.013 498.055 419.803L498.179 420.603C496.872 420.814 495.54 420.998 494.223 421.147ZM482.264 421.643C480.941 421.604 479.599 421.533 478.279 421.429L478.34 420.623C479.646 420.723 480.976 420.794 482.289 420.833L482.264 421.643ZM486.258 421.666L486.245 420.856C487.561 420.833 488.89 420.778 490.194 420.694L490.245 421.501C488.929 421.588 487.587 421.643 486.258 421.666ZM145.896 214.165C144.594 214.049 143.268 213.974 141.957 213.951L141.971 213.141C143.301 213.167 144.645 213.239 145.966 213.358L145.896 214.165ZM134.084 214.379L133.985 213.575C135.301 213.41 136.641 213.287 137.97 213.216L138.012 214.023C136.702 214.097 135.381 214.214 134.084 214.379ZM153.678 215.442C152.404 215.137 151.103 214.875 149.81 214.661L149.936 213.861C151.248 214.078 152.568 214.343 153.861 214.654L153.678 215.442ZM126.353 215.947L126.142 215.166C127.421 214.807 128.731 214.492 130.036 214.227L130.191 215.02C128.905 215.283 127.614 215.594 126.353 215.947ZM161.204 217.849C159.985 217.356 158.733 216.906 157.481 216.508L157.719 215.733C158.989 216.138 160.26 216.598 161.496 217.094L161.204 217.849ZM118.927 218.627L118.608 217.888C119.824 217.344 121.074 216.841 122.325 216.388L122.59 217.152C121.357 217.596 120.125 218.092 118.927 218.627ZM168.315 221.335C167.178 220.671 166.002 220.039 164.822 219.462L165.166 218.73C166.364 219.32 167.556 219.958 168.71 220.632L168.315 221.335ZM111.957 222.369L111.537 221.679C112.664 220.966 113.832 220.282 115.006 219.654L115.376 220.37C114.219 220.992 113.068 221.662 111.957 222.369ZM174.86 225.819C173.827 224.996 172.753 224.202 171.666 223.457L172.11 222.787C173.212 223.541 174.302 224.348 175.35 225.181L174.86 225.819ZM105.578 227.083L105.067 226.464C106.082 225.592 107.143 224.75 108.218 223.953L108.685 224.611C107.625 225.391 106.58 226.227 105.578 227.083ZM180.71 231.207C179.804 230.245 178.851 229.302 177.88 228.408L178.413 227.805C179.398 228.716 180.364 229.671 181.284 230.647L180.71 231.207ZM99.9201 232.678L99.3274 232.14C100.212 231.129 101.144 230.141 102.098 229.198L102.652 229.778C101.708 230.712 100.797 231.679 99.9201 232.678ZM185.749 237.386C184.986 236.3 184.175 235.231 183.338 234.204L183.95 233.689C184.798 234.729 185.621 235.814 186.395 236.913L185.749 237.386ZM95.099 239.038L94.4367 238.591C95.1715 237.463 95.9563 236.349 96.7691 235.276L97.3984 235.772C96.5968 236.828 95.8231 237.927 95.099 239.038ZM189.87 244.228C189.267 243.043 188.614 241.866 187.93 240.733L188.607 240.308C189.302 241.461 189.964 242.654 190.576 243.856L189.87 244.228ZM91.2167 246.036L90.4983 245.69C91.0672 244.468 91.6876 243.247 92.3424 242.067L93.0346 242.466C92.3891 243.629 91.7773 244.831 91.2167 246.036ZM192.986 251.596C192.554 250.332 192.078 249.084 191.558 247.854L192.289 247.533C192.814 248.777 193.301 250.054 193.737 251.33L192.986 251.596ZM88.3598 253.533L87.5998 253.294C87.9906 251.998 88.433 250.702 88.9141 249.438L89.655 249.733C89.1809 250.977 88.7449 252.257 88.3598 253.533ZM195.031 259.352C194.783 258.043 194.486 256.725 194.146 255.435L194.914 255.228C195.258 256.534 195.56 257.872 195.812 259.2L195.031 259.352ZM86.5943 261.361L85.8086 261.238C86.0124 259.897 86.2665 258.552 86.5638 257.233L87.3384 257.415C87.0456 258.714 86.7953 260.042 86.5943 261.361ZM195.964 267.329C195.902 265.991 195.792 264.643 195.638 263.321L196.427 263.227C196.584 264.569 196.695 265.933 196.758 267.29L195.964 267.329ZM85.945 269.364L85.15 269.354C85.1656 268 85.2286 266.629 85.3376 265.285L86.1298 265.349C86.0223 266.678 85.9603 268.029 85.945 269.364ZM196.681 274.097L195.888 274.042C195.98 272.714 196.027 271.363 196.027 270.025H196.821C196.821 271.379 196.774 272.749 196.681 274.097ZM85.6229 277.489C85.4505 276.148 85.3233 274.784 85.2448 273.43L86.0385 273.384C86.1158 274.716 86.2411 276.064 86.4109 277.382L85.6229 277.489ZM195.548 282.165L194.77 281.993C195.05 280.683 195.283 279.364 195.469 278.037L196.256 278.15C196.068 279.492 195.829 280.843 195.548 282.165ZM87.2291 285.473C86.8691 284.167 86.5514 282.835 86.2846 281.51L87.0637 281.348C87.3264 282.654 87.6393 283.966 87.9941 285.252L87.2291 285.473ZM193.29 289.979L192.545 289.697C193.005 288.447 193.425 287.164 193.795 285.884L194.557 286.114C194.182 287.41 193.756 288.712 193.29 289.979ZM89.9441 293.132C89.4041 291.894 88.902 290.624 88.4517 289.354L89.1993 289.079C89.6433 290.329 90.1381 291.583 90.6704 292.801L89.9441 293.132ZM189.948 297.392L189.251 297.003C189.883 295.831 190.481 294.622 191.027 293.41L191.75 293.747C191.195 294.978 190.589 296.206 189.948 297.392ZM93.7088 300.311C93.0009 299.168 92.3249 297.982 91.6997 296.79L92.4009 296.407C93.0171 297.583 93.6837 298.753 94.3817 299.88L93.7088 300.311ZM185.601 304.238L184.965 303.749C185.755 302.683 186.516 301.575 187.227 300.454L187.894 300.895C187.173 302.032 186.401 303.156 185.601 304.238ZM98.4434 306.875C97.5816 305.845 96.7466 304.769 95.9608 303.681L96.6016 303.201C97.3759 304.274 98.1995 305.336 99.0488 306.354L98.4434 306.875ZM180.342 310.381L179.782 309.804C180.711 308.865 181.619 307.877 182.48 306.872L183.079 307.404C182.206 308.424 181.285 309.425 180.342 310.381ZM104.048 312.691C103.052 311.797 102.075 310.851 101.143 309.885L101.711 309.318C102.629 310.271 103.593 311.201 104.574 312.085L104.048 312.691ZM174.283 315.698L173.808 315.047C174.859 314.25 175.895 313.404 176.887 312.536L177.406 313.148C176.399 314.032 175.349 314.888 174.283 315.698ZM110.408 317.635C109.297 316.893 108.198 316.099 107.141 315.28L107.623 314.635C108.665 315.445 109.749 316.226 110.844 316.958L110.408 317.635ZM167.545 320.078L167.167 319.369C168.316 318.734 169.458 318.047 170.563 317.327L170.991 318.011C169.87 318.74 168.711 319.437 167.545 320.078ZM117.399 321.607C116.195 321.034 114.995 320.409 113.833 319.751L114.22 319.041C115.366 319.693 116.548 320.308 117.735 320.872L117.399 321.607ZM160.265 323.431L159.99 322.673C161.217 322.213 162.444 321.701 163.636 321.151L163.964 321.889C162.754 322.446 161.509 322.968 160.265 323.431ZM124.881 324.514C123.606 324.125 122.33 323.681 121.088 323.198L121.371 322.44C122.596 322.916 123.853 323.354 125.11 323.739L124.881 324.514ZM152.58 325.686L152.416 324.896C153.696 324.62 154.983 324.293 156.242 323.924L156.462 324.701C155.185 325.077 153.879 325.408 152.58 325.686ZM132.685 326.292C131.368 326.091 130.045 325.842 128.751 325.547L128.925 324.757C130.2 325.048 131.504 325.294 132.802 325.492L132.685 326.292ZM144.657 326.794L144.606 325.988C145.912 325.9 147.232 325.764 148.53 325.583L148.638 326.386C147.322 326.571 145.983 326.707 144.657 326.794ZM140.658 326.914C139.323 326.908 137.979 326.85 136.661 326.749L136.722 325.939C138.021 326.043 139.347 326.098 140.662 326.104L140.658 326.914ZM364.568 106.917C357.499 106.917 351.75 112.775 351.75 119.977C351.75 127.177 357.499 133.038 364.568 133.038C371.637 133.038 377.387 127.177 377.387 119.977C377.387 112.775 371.637 106.917 364.568 106.917ZM364.568 133.643C357.172 133.643 351.152 127.514 351.152 119.977C351.152 112.441 357.172 106.308 364.568 106.308C371.965 106.308 377.981 112.441 377.981 119.977C377.981 127.514 371.965 133.643 364.568 133.643Z" fill="#91FF95"/>
<path d="M504.135 182.706V428.998C504.135 434.123 500.058 438.28 495.034 438.28H143.748C138.716 438.28 134.638 434.123 134.638 428.998V182.706C134.638 177.58 138.716 173.423 143.748 173.423H495.034C500.058 173.423 504.135 177.58 504.135 182.706Z" fill="white"/>
<path d="M143.748 173.828C138.944 173.828 135.035 177.813 135.035 182.706V428.998C135.035 433.893 138.944 437.875 143.748 437.875H495.034C499.833 437.875 503.741 433.893 503.741 428.998V182.706C503.741 177.813 499.833 173.828 495.034 173.828H143.748ZM495.034 438.685H143.748C138.506 438.685 134.24 434.34 134.24 428.998V182.706C134.24 177.366 138.506 173.018 143.748 173.018H495.034C500.271 173.018 504.533 177.366 504.533 182.706V428.998C504.533 434.34 500.271 438.685 495.034 438.685Z" fill="#91FF95"/>
<path d="M504.138 182.706V197.318H134.638V182.706C134.638 177.58 138.716 173.423 143.748 173.423H495.034C500.058 173.423 504.138 177.58 504.138 182.706Z" fill="white"/>
<path d="M135.035 196.913H503.741V182.706C503.741 177.813 499.833 173.828 495.034 173.828H143.748C138.944 173.828 135.035 177.813 135.035 182.706V196.913ZM504.536 197.723H134.24V182.706C134.24 177.366 138.506 173.018 143.748 173.018H495.034C500.271 173.018 504.536 177.366 504.536 182.706V197.723Z" fill="#91FF95"/>
<path d="M159.394 185.372C159.394 187.757 157.495 189.691 155.154 189.691C152.812 189.691 150.914 187.757 150.914 185.372C150.914 182.987 152.812 181.053 155.154 181.053C157.495 181.053 159.394 182.987 159.394 185.372ZM171.318 181.053C168.98 181.053 167.078 182.991 167.078 185.372C167.078 187.753 168.98 189.691 171.318 189.691C173.656 189.691 175.558 187.753 175.558 185.372C175.558 182.991 173.656 181.053 171.318 181.053Z" fill="#2EC907"/>
<path d="M187.483 181.863C185.583 181.863 184.038 183.438 184.038 185.372C184.038 187.306 185.583 188.881 187.483 188.881C189.382 188.881 190.928 187.306 190.928 185.372C190.928 183.438 189.382 181.863 187.483 181.863ZM187.483 189.691C185.145 189.691 183.243 187.753 183.243 185.372C183.243 182.991 185.145 181.053 187.483 181.053C189.821 181.053 191.723 182.991 191.723 185.372C191.723 187.753 189.821 189.691 187.483 189.691ZM213.005 181.374C210.841 181.374 209.08 183.166 209.08 185.372C209.08 187.578 210.841 189.37 213.005 189.37H291.807C293.972 189.37 295.733 187.578 295.733 185.372C295.733 183.166 293.972 181.374 291.807 181.374H213.005ZM291.807 190.18H213.005C210.402 190.18 208.285 188.022 208.285 185.372C208.285 182.718 210.402 180.564 213.005 180.564H291.807C294.41 180.564 296.528 182.718 296.528 185.372C296.528 188.022 294.41 190.18 291.807 190.18ZM392.017 311.93C392.017 350.711 361.166 382.155 323.102 382.155C285.038 382.155 254.176 350.711 254.176 311.93C254.176 275.545 281.341 245.625 316.129 242.061L318.428 265.106C295.118 267.494 276.921 287.549 276.921 311.93C276.921 337.924 297.598 358.989 323.102 358.989C348.605 358.989 369.275 337.924 369.275 311.93C369.275 307.394 368.645 303.013 367.468 298.866L389.324 292.435C391.079 298.623 392.017 305.168 392.017 311.93Z" fill="#2EC907"/>
<path d="M378.748 311.93C378.748 343.244 353.833 368.628 323.099 368.628C292.365 368.628 267.45 343.244 267.45 311.93C267.45 280.616 292.365 255.231 323.099 255.231C353.833 255.231 378.748 280.616 378.748 311.93Z" fill="white"/>
<path d="M323.099 368.628C292.365 368.628 267.45 343.244 267.45 311.93C267.45 280.616 292.365 255.231 323.099 255.231C353.833 255.231 378.748 280.616 378.748 311.93C378.748 343.244 353.833 368.628 323.099 368.628Z" fill="#148C09"/>
<path d="M362.514 311.93C362.514 334.117 344.869 352.101 323.099 352.101C301.33 352.101 283.683 334.117 283.683 311.93C283.683 289.746 301.33 271.758 323.099 271.758C344.869 271.758 362.514 289.746 362.514 311.93Z" fill="white"/>
<path d="M327.599 331.684V337.791H319.983V331.959C314.585 331.632 309.349 330.141 306.109 328.11L310.21 318.643C313.776 320.791 318.523 322.165 322.682 322.165C326.301 322.165 327.599 321.394 327.599 320.072C327.599 315.231 306.702 319.139 306.702 304.776C306.702 298.559 311.129 293.333 319.983 292.066V286.069H327.599V291.956C331.589 292.341 335.482 293.388 338.557 295.15L334.725 304.559C330.995 302.631 327.487 301.698 324.196 301.698C320.466 301.698 319.28 302.796 319.28 304.115C319.28 308.738 340.175 304.886 340.175 319.083C340.175 325.025 335.965 330.2 327.599 331.684Z" fill="#1E1E1E"/>
<path d="M568.446 218.789H418.509V125.378H568.446V218.789Z" fill="white"/>
<path d="M418.907 218.384H568.048V125.783H418.907V218.384ZM568.843 219.194H418.112V124.973H568.843V219.194Z" fill="#91FF95"/>
<path d="M446.016 205.204H437.385V189.056H446.016V205.204ZM463.276 205.204H454.646V181.679H463.276V205.204ZM480.534 205.204H471.903V187.708H480.534V205.204ZM497.794 205.204H489.164V175.4H497.794V205.204ZM515.052 205.204H506.425V167.527H515.052V205.204ZM532.312 205.204H523.682V156.281H532.312V205.204ZM549.573 205.204H540.943V138.967H549.573V205.204ZM444.244 154.739H437.385V146.827H444.244V154.739ZM501.289 152.513H454.843V150.488H501.289V152.513Z" fill="#2EC907"/>
<path d="M433.531 266.15L424.036 239.424C413.307 243.38 405.64 253.851 405.64 266.15C405.64 281.844 418.128 294.567 433.531 294.567C448.938 294.567 461.422 281.844 461.422 266.15C461.422 261.426 460.287 256.977 458.287 253.057L433.531 266.15Z" fill="#58F231"/>
<path d="M461.995 242.932C457.349 233.828 448.013 227.604 437.242 227.604C433.906 227.604 430.711 228.204 427.747 229.299L437.242 256.025L461.995 242.932Z" fill="#148C09"/>
<path d="M473.013 421.206H407.03V357.217H473.013V421.206Z" fill="#91FF95"/>
<path d="M454.331 376.929H417.365V374.227H454.331V376.929ZM454.331 385.029H417.365V382.327H454.331V385.029Z" fill="white"/>
<path d="M221.143 333.728H163.766V234.91H221.143V333.728Z" fill="#EEFFEB"/>
<path d="M210.14 284.319H172.511V249.221H210.14V284.319Z" fill="white"/>
<path d="M209.871 284.617L172.242 249.519L172.779 248.92L210.408 284.021L209.871 284.617Z" fill="#EBEBFF"/>
<path d="M172.779 284.617L172.242 284.021L209.871 248.92L210.408 249.519L172.779 284.617Z" fill="#EBEBFF"/>
<path d="M60.1056 363.373H191.345V275.27H60.1056V363.373Z" fill="white"/>
<path d="M60.4852 362.988H190.965V275.656H60.4852V362.988ZM191.724 363.759H59.7262V274.884H191.724V363.759Z" fill="#58F231"/>
<path d="M73.9332 342.097L82.4131 325.897L99.9026 342.638L111.562 308.077L133.292 332.377L147.601 326.438L173.571 291.878" fill="white"/>
<path d="M100.078 343.363L82.5192 326.555L74.2839 342.288L73.5824 341.909L82.3065 325.239L99.7264 341.912L111.404 307.3L133.399 331.897L147.351 326.104L173.255 291.632L173.886 292.124L147.851 326.772L133.185 332.86L132.998 332.649L111.72 308.855L100.078 343.363Z" fill="#58F231"/>
<path d="M84.6654 325.832C84.6654 327.06 83.6866 328.058 82.4792 328.058C81.2717 328.058 80.293 327.06 80.293 325.832C80.293 324.601 81.2717 323.603 82.4792 323.603C83.6866 323.603 84.6654 324.601 84.6654 325.832ZM101.956 342.233C101.956 343.464 100.977 344.462 99.77 344.462C98.5626 344.462 97.5838 343.464 97.5838 342.233C97.5838 341.002 98.5626 340.007 99.77 340.007C100.977 340.007 101.956 341.002 101.956 342.233ZM113.881 308.214C113.881 309.445 112.902 310.439 111.695 310.439C110.487 310.439 109.508 309.445 109.508 308.214C109.508 306.982 110.487 305.984 111.695 305.984C112.902 305.984 113.881 306.982 113.881 308.214Z" fill="#58F231"/>
<path d="M153.549 290.125H97.9008V289.315H153.549V290.125ZM372.14 488.23C369.787 472.523 373.021 456.009 381.107 442.424C389.197 428.836 402.075 418.283 416.833 413.151C408.477 419.109 403.376 428.745 399.815 438.484C396.256 448.227 393.922 458.449 389.527 467.831C385.136 477.211 378.213 485.978 368.61 489.487L372.14 488.23Z" fill="#148C09"/>
<path d="M369.831 488.359C369.497 470.206 366.034 452.118 359.652 435.163C357.388 429.143 354.669 423.137 350.249 418.52C345.832 413.906 339.406 410.867 333.176 411.995C340.932 417.911 344.951 427.643 347.215 437.243C349.48 446.846 350.351 456.809 353.537 466.134C356.723 475.458 362.819 484.446 371.943 487.78L369.831 488.359Z" fill="#148C09"/>
<path d="M368.613 489.552C364.177 477.379 359.356 464.902 350.437 455.63C341.517 446.36 327.382 441.053 315.702 446.237C325.163 448.424 333.831 454.007 339.832 461.773C344.233 467.468 347.19 474.22 351.715 479.813C356.24 485.405 363.144 489.911 370.136 488.577L368.613 489.552Z" fill="#91FF95"/>
<path d="M367.195 488.719C365.379 475.361 363.56 461.789 365.475 448.447C367.389 435.105 373.583 421.782 384.678 414.431C378.538 420.567 376.487 429.859 376.484 438.623C376.48 447.387 378.223 456.07 378.369 464.834C378.515 473.595 376.808 482.903 370.992 489.361L367.195 488.719Z" fill="#91FF95"/>
<path d="M373.335 486.772C377.587 475.734 382.118 464.274 390.777 456.349C396.339 451.262 403.421 447.925 410.827 446.905C405.634 451.126 402.384 457.311 399.687 463.496C396.991 469.681 394.663 476.122 390.758 481.598C386.853 487.073 380.989 491.577 374.353 491.868L373.335 486.772Z" fill="#91FF95"/>
<path d="M394.927 520.36H347.171L339.806 482.929H402.289L394.927 520.36Z" fill="white"/>
<path d="M347.495 519.955H394.603L401.805 483.334H340.293L347.495 519.955ZM395.251 520.765H346.843L339.323 482.524H402.775L395.251 520.765Z" fill="#58F231"/>
<path d="M480.425 497.852V520.36H451.774L464.892 509.458L465.582 495.74L480.425 497.852Z" fill="#91FF95"/>
<path d="M470.088 515.053L464.618 509.749L465.168 509.163L470.638 514.464L470.088 515.053ZM477.649 504.634H467.846V503.824H477.649V504.634Z" fill="#1E1E1E"/>
<path d="M513.907 498.905L514.943 520.36H486.292L498.376 509.808V496.796L513.907 498.905Z" fill="#91FF95"/>
<path d="M502.561 514.117L498.112 510.112L498.637 509.506L503.086 513.511L502.561 514.117ZM511.302 505.039H501.632V504.229H511.302V505.039Z" fill="#1E1E1E"/>
<path d="M483.31 368.473C483.803 413.323 487.453 457.457 494.43 500.84H518.569C513.548 467.663 511.277 427.375 514.085 373.958L496.653 359.411L483.31 368.473Z" fill="#58F231"/>
<path d="M464.227 374.405L453.304 423.905C450.677 435.798 450.496 448.116 452.767 460.085L460.44 500.519H484.582L477.277 447.439L494.748 366.529L464.227 374.405Z" fill="#58F231"/>
<path d="M484.938 421.838C484.877 420.817 483.504 398.053 483.361 395.17L477.052 392.831L477.322 392.072L484.143 394.596V394.881C484.143 395.38 485.183 412.701 485.733 421.789L484.938 421.838Z" fill="#BE443D"/>
<path d="M537.206 262.651L538.497 259.514C538.497 259.514 533.829 249.49 535.317 248.175C536.809 246.856 539.194 250.605 539.194 250.605C539.194 250.605 538.497 238.455 540.784 238.351C542.711 238.267 542.574 241.795 542.771 247.06C542.771 247.06 543.963 245.44 546.158 247.115C547.143 245.44 549.229 246.555 549.827 247.565C550.524 246.756 553.405 246.96 553.007 250.4C552.502 254.768 550.524 262.855 550.524 262.855L544.164 268.22L537.206 262.651Z" fill="#FFBC96"/>
<path d="M486.13 304.569L495.8 304.491C512.762 302.949 526.013 288.91 526.013 288.91L537.206 262.651L550.524 262.855L542.707 293.712C541.585 298.144 539.165 302.126 535.772 305.123L507.992 329.678L486.13 304.569Z" fill="#148C09"/>
<path d="M459.622 326.911L464.227 374.405L514.085 373.958L512.365 316.718L486.13 304.569L467.976 312.399L459.622 326.911Z" fill="#148C09"/>
<path d="M428.745 331.525C427.931 330.786 426.907 330.339 425.823 330.248C420.312 329.778 403.08 328.424 403.249 329.785C403.446 331.405 416.563 337.48 416.563 337.48C419.368 340.697 422.176 343.914 424.98 347.128L432.689 335.089L428.745 331.525Z" fill="#FFBC96"/>
<path d="M466.329 309.14C462.777 309.772 459.724 312.069 458.09 315.345L443.395 344.77L432.689 335.089L424.98 347.128C425.918 348.204 426.857 349.28 427.791 350.355C431.954 355.128 436.81 361.543 443.309 362.933C446.62 363.639 449.704 362.239 452.076 359.916C453.819 358.215 455.374 356.112 456.614 354.003L462.475 344.164L481.157 306.5L466.329 309.14Z" fill="#148C09"/>
<path d="M462.017 356.177L459.228 326.95L460.017 326.872L462.809 356.1L462.017 356.177Z" fill="#D1D1FF"/>
<path d="M512.664 325.427L507.992 329.678L512.962 338.082L512.664 325.427Z" fill="#1E1E1E"/>
<path d="M544.495 253.103C542.618 253.103 542.475 250.598 542.472 247.06H543.07C543.07 251.223 543.404 252.493 544.495 252.493C544.714 252.493 544.898 252.406 545.067 252.221C545.598 251.641 545.805 250.287 545.868 249.066C545.827 248.188 545.846 247.42 545.859 247.102L546.457 247.092C546.46 247.167 546.514 247.987 546.469 248.994C546.552 250.643 546.822 252.273 547.363 252.438C547.665 252.532 547.926 252.49 548.164 252.318C548.807 251.845 549.169 250.511 549.357 249.315C549.373 248.803 549.427 248.21 549.532 247.52L550.126 247.575C550.123 247.643 550.101 248.337 549.974 249.208C549.932 250.472 550.072 251.696 550.575 251.91C550.943 252.069 551.252 252.069 551.509 251.907C552.193 251.483 552.441 250.051 552.479 249.535L553.074 249.581C553.068 249.668 552.902 251.751 551.821 252.425C551.392 252.691 550.896 252.707 550.342 252.471C550.203 252.409 549.764 252.15 549.519 251.204C549.284 251.881 548.959 252.484 548.511 252.811C548.12 253.099 547.678 253.171 547.191 253.022C546.666 252.86 546.342 252.179 546.145 251.327C545.999 251.855 545.792 252.322 545.503 252.636C545.22 252.944 544.883 253.103 544.495 253.103Z" fill="#D28572"/>
<path d="M481.923 316.093C477.688 316.443 473.983 313.226 473.64 308.917L473.554 307.825L472.345 292.548L481.685 291.787L487.679 291.291L488.967 307.653C489.31 311.972 486.153 315.746 481.923 316.093Z" fill="#FFBC96"/>
<path d="M484.674 296.939C481.764 302.161 477.599 305.92 473.554 307.825L472.345 292.548L481.685 291.787L484.674 296.939Z" fill="#1E1E1E"/>
<path d="M487.72 280.94L485.866 296.874C485.866 296.874 479.904 302.68 471.159 302.404C467.973 302.307 466.097 299.229 465 295.319C464.545 293.682 464.23 291.907 464.004 290.135C463.273 284.27 463.607 278.51 463.607 278.51L477.122 273.925L487.72 280.94Z" fill="#FFBC96"/>
<path d="M485.666 287.491C484.257 282.382 481.729 279.809 478.311 279.255C467.448 285.265 460.392 281.685 455.256 275.004C467.846 277.502 473.344 259.278 485.402 271.428C494.344 274.194 494.179 282.9 489.113 289.989L485.666 287.491Z" fill="#1E1E1E"/>
<path d="M491.275 289.445C490.814 291.849 488.782 293.469 486.734 293.06C484.69 292.655 483.402 290.375 483.863 287.971C484.324 285.563 486.359 283.947 488.404 284.352C490.452 284.76 491.736 287.041 491.275 289.445Z" fill="#FFBC96"/>
<path d="M488.964 287.057C488.34 287.164 487.936 287.647 487.634 288.191C487.339 288.748 487.145 289.364 487.027 290.028L486.795 290.044C486.696 289.688 486.693 289.309 486.754 288.946C486.814 288.58 486.935 288.223 487.119 287.896C487.304 287.569 487.545 287.264 487.873 287.047C488.191 286.827 488.614 286.717 488.979 286.82L488.964 287.057ZM466.85 288.133C466.85 288.823 466.526 289.38 466.122 289.38C465.718 289.38 465.394 288.823 465.394 288.133C465.394 287.442 465.718 286.885 466.122 286.885C466.526 286.885 466.85 287.442 466.85 288.133ZM472.873 287.624C472.873 288.372 472.52 288.975 472.085 288.975C471.649 288.975 471.296 288.372 471.296 287.624C471.296 286.875 471.649 286.27 472.085 286.27C472.52 286.27 472.873 286.875 472.873 287.624ZM468.507 289.147C468.51 289.386 468.415 289.623 468.3 289.824C468.183 290.025 468.04 290.196 467.897 290.355C467.617 290.669 467.353 290.954 467.292 291.256C467.213 291.56 467.331 291.862 467.56 292.163C467.792 292.461 468.103 292.73 468.405 293.028L468.278 293.226C467.89 293.06 467.505 292.85 467.172 292.523C467.006 292.357 466.86 292.156 466.761 291.91C466.669 291.661 466.647 291.376 466.714 291.116C466.78 290.851 466.914 290.624 467.067 290.446C467.219 290.268 467.385 290.119 467.54 289.983C467.852 289.71 468.148 289.474 468.275 289.111L468.507 289.147ZM469.08 295.895C469.919 295.704 470.698 295.435 471.391 294.991C471.741 294.774 472.069 294.522 472.383 294.246C472.701 293.968 473 293.67 473.315 293.362L473.503 293.501C473.115 294.314 472.488 295.027 471.7 295.51C470.918 295.993 469.983 296.223 469.092 296.132L469.08 295.895ZM471.127 284.271C470.956 285.184 473.776 285.479 474.282 285.57C474.702 285.644 475.296 285.693 475.385 285.048C475.493 284.248 474.638 284.164 474.155 284.057C473.694 283.953 471.29 283.409 471.127 284.271ZM467.207 284.834C467.191 285.716 464.949 285.806 464.539 285.858C464.202 285.9 463.731 285.903 463.766 285.285C463.81 284.514 464.488 284.491 464.882 284.423C465.257 284.355 467.219 283.998 467.207 284.834Z" fill="#1E1E1E"/>
<path d="M477.732 293.281C476.142 293.281 474.851 291.965 474.851 290.342C474.851 288.722 476.142 287.407 477.732 287.407C479.325 287.407 480.616 288.722 480.616 290.342C480.616 291.965 479.325 293.281 477.732 293.281ZM465 295.319C464.545 293.683 464.23 291.907 464.004 290.135C465.248 290.465 466.16 291.616 466.16 292.976C466.16 293.942 465.709 294.791 465 295.319Z" fill="#FFA988"/>
<path d="M260.756 391.382H205.452V387.588H260.756V391.382Z" fill="#9192FF"/>
<path d="M260.753 387.592H214.048L231.737 343.652H278.442L260.753 387.592Z" fill="white"/>
<path d="M214.641 387.187H260.487L277.849 344.057H232.003L214.641 387.187ZM261.02 387.997H213.456L231.47 343.247H279.034L261.02 387.997Z" fill="#91FF95"/>
<path d="M256.721 383.898H220.016L233.917 349.364H270.622L256.721 383.898Z" fill="#91FF95"/>
<path d="M242.159 520.564H241.365V392.597H242.159V520.564Z" fill="#0D6306"/>
<path d="M286.369 398.617H197.155V391.385H286.369V398.617Z" fill="#91FF95"/>
<path d="M125.161 520.564H124.366V446.351H125.161V520.564Z" fill="#1E1E1E"/>
<path d="M146.581 449.792H102.946C103.873 445.278 107.778 442.045 112.304 442.045H137.224C141.749 442.045 145.655 445.278 146.581 449.792ZM136.091 520.35H113.437C113.437 517.545 115.67 515.267 118.424 515.267H131.103C133.858 515.267 136.091 517.545 136.091 520.35Z" fill="#91FF95"/>
<path d="M158.427 336.236C159.544 337.869 161.144 340.182 161.321 342.207C161.577 345.149 156.959 343.085 156.905 343.341L158.427 336.236Z" fill="#D28572"/>
<path d="M136.771 361.5H151.374V339.696H136.771V361.5Z" fill="#FFBC96"/>
<path d="M151.374 343.435V359.002C146.773 356.057 142.795 351.683 139.357 346.632L151.374 343.435Z" fill="#1E1E1E"/>
<path d="M159.582 337.557C159.128 345.09 156.283 353.611 148.52 351.509C142.423 349.859 135.712 344.627 135.712 337.081C135.712 329.535 140.838 323.415 147.162 323.415C151.114 323.415 156.091 325.372 158.433 329.147C159.838 331.411 159.781 334.272 159.582 337.557Z" fill="#FFBC96"/>
<path d="M146.658 335.374C148.725 329.785 153.458 329.237 153.458 329.237C153.458 329.237 164.414 340.279 163.736 328.871C163.196 319.803 154.5 320.661 154.5 320.661C150.251 315.027 143.437 317.23 140.952 320.499C138.467 323.765 139.349 321.886 133.497 324.011C127.645 326.133 130.771 335.199 129.729 335.853C121.953 335.853 123.396 343.694 123.396 343.694L141.804 349.811L146.238 337.48L146.658 335.374Z" fill="#1E1E1E"/>
<path d="M148.577 336.012C149.715 338.021 149.408 340.373 147.89 341.267C146.372 342.158 144.219 341.254 143.081 339.246C141.943 337.237 142.251 334.885 143.768 333.994C145.286 333.099 147.439 334.003 148.577 336.012Z" fill="#FFBC96"/>
<path d="M146.227 338.432C145.968 337.924 145.75 337.428 145.402 337.081C145.23 336.906 145.032 336.767 144.807 336.641C144.581 336.517 144.331 336.414 144.073 336.291L144.113 336.077C144.405 336.061 144.701 336.096 144.991 336.197C145.281 336.294 145.563 336.466 145.784 336.699C146.006 336.932 146.166 337.211 146.266 337.499C146.369 337.788 146.423 338.082 146.431 338.38L146.227 338.432ZM138.717 311.285C142.13 311.12 145.039 314.039 145.214 317.807C145.389 321.572 142.765 324.76 139.352 324.925C135.939 325.09 133.031 322.171 132.855 318.403C132.68 314.635 135.305 311.447 138.717 311.285Z" fill="#1E1E1E"/>
<path d="M153.232 344.663C151.696 344.663 150.45 343.393 150.45 341.828C150.45 340.263 151.696 338.993 153.232 338.993C154.769 338.993 156.015 340.263 156.015 341.828C156.015 343.393 154.769 344.663 153.232 344.663Z" fill="#FFA988"/>
<path d="M164.163 415.131L117.395 409.056L126.211 361.698C126.831 358.384 128.993 355.571 132.006 354.182C134.519 353.015 137.388 352.941 139.964 353.968L155.904 361.186C158.972 362.573 161.087 365.512 161.468 368.907L162.367 384.378L163.392 401.912L164.163 415.131Z" fill="#2EC907"/>
<path d="M206.96 381.112L219.339 377.405C220.231 377.136 221.19 377.282 221.964 377.807C225.352 380.101 234.372 386.584 232.094 389.234C230.958 390.559 220.607 387.455 220.607 387.455L205.62 391.716L206.96 381.112Z" fill="#FFBC96"/>
<path d="M163.392 401.912C159.497 396.858 157.183 390.183 156.412 381.922L162.367 384.378L163.392 401.912Z" fill="#1E1E1E"/>
<path d="M154.491 360.593L156.354 361.41C160.191 363.094 163.629 365.599 166.437 368.748L181.786 385.972L206.96 381.112L210.272 394.881L178.641 404.954C176.143 405.408 173.591 404.53 171.874 402.625L149.059 377.331L154.491 360.593Z" fill="#2EC907"/>
<path d="M181.493 386.247C181.418 386.163 173.93 377.856 167.444 370.446C161.033 363.124 151.258 359.563 151.16 359.527L151.424 358.763C151.524 358.798 161.487 362.424 168.037 369.908C174.519 377.311 182.003 385.615 182.078 385.696L181.493 386.247ZM171.589 402.907L150.363 380.584L150.934 380.02L172.16 402.343L171.589 402.907Z" fill="#148C09"/>
<path d="M162.468 486.762L152.379 506.788L177.867 520.117L171.084 504.316L176.618 491.794L162.468 486.762Z" fill="#91FF95"/>
<path d="M163.955 506.876L163.731 506.098L170.972 503.927L171.197 504.705L163.955 506.876Z" fill="#1E1E1E"/>
<path d="M178.34 499.923L155.251 491.146L171.063 441.018C173.781 433.595 182.153 429.924 189.763 432.818H189.764C197.374 435.708 201.339 444.073 198.621 451.496L178.34 499.923Z" fill="#0D6306"/>
<path d="M200.732 496.534L202.986 520.36H231.636L218.52 509.458L215.44 495.724L200.732 496.534Z" fill="#91FF95"/>
<path d="M211.922 513.628L211.538 512.918L218.328 509.101L218.711 509.811L211.922 513.628Z" fill="#1E1E1E"/>
<path d="M221.402 499.369L196.36 503.419L179.212 452.04L176.088 442.67L133.501 443.02C122.967 443.263 114.588 434.068 115.622 423.376L117.395 409.056L159.529 414.457L187.218 417.561C198.745 419.586 202.283 426.697 204.683 435.834L221.402 499.369Z" fill="#148C09"/>
<path d="M179.212 452.04L176.088 442.67L181.852 442.469C182.384 446.001 181.009 449.944 179.212 452.04ZM559.268 520.765H76.7156V519.955H559.268V520.765Z" fill="#2EC907"/>
</g>
<defs>
<clipPath id="clip0_34_2">
<rect width="636" height="648" fill="white"/>
</clipPath>
</defs>
</svg>
